<?xml version="1.0" encoding="iso-8859-1"?>
<!-- Generator: Adobe Illustrator 19.0.0, SVG Export Plug-In . SVG Version: 6.00 Build 0)  -->
<svg version="1.1" id="Capa_1" xmlns="http://www.w3.org/2000/svg" xmlns:xlink="http://www.w3.org/1999/xlink" x="0px" y="0px"
	 viewBox="0 0 512 512" style="enable-background:new 0 0 512 512;" xml:space="preserve">
<polygon style="fill:#5CE6EB;" points="83.672,369.202 261.022,24.934 265.086,370.143 "/>
<polygon style="fill:#ADADAD;" points="257.593,0.5 257.593,361.08 65.698,361.08 65.698,391.051 257.593,391.051 257.593,428.227 
	287.564,428.227 287.564,0.5 "/>
<rect x="272.583" y="0.5" style="fill:#787878;stroke:#8C8C8C;stroke-miterlimit:10;" width="14.985" height="427.722"/>
<path style="fill:#E3E3E3;" d="M368.204,512h-187.72l-30.621-82.011l124.481-25.648l124.481,25.648L368.204,512z"/>
<polygon style="fill:#D7D7D7;" points="274.344,404.342 272.579,404.705 272.579,512 368.204,512 398.826,429.99 "/>
<rect x="259.355" y="469.372" style="fill:#00D8E0;" width="29.971" height="42.625"/>
<rect x="272.583" y="469.372" style="fill:#00B4CC;" width="16.751" height="42.625"/>
<g>
	<path style="fill:#00D8E0;" d="M446.3,294.913h-91.351c-23.078,0-41.854-18.776-41.854-41.854s18.776-41.853,41.854-41.853
		c11.887,0,23.254,5.082,31.188,13.942l-22.33,19.99c-2.288-2.555-5.433-3.962-8.857-3.962c-6.553,0-11.883,5.331-11.883,11.882
		c0,6.552,5.331,11.883,11.883,11.883H446.3V294.913z"/>
	<rect x="371.066" y="318.679" style="fill:#00D8E0;" width="75.237" height="29.971"/>
</g>
<g>
</g>
<g>
</g>
<g>
</g>
<g>
</g>
<g>
</g>
<g>
</g>
<g>
</g>
<g>
</g>
<g>
</g>
<g>
</g>
<g>
</g>
<g>
</g>
<g>
</g>
<g>
</g>
<g>
</g>
</svg>
