<svg height="512pt" viewBox="-68 0 512 512.19632" width="512pt" xmlns="http://www.w3.org/2000/svg"><path d="m367.035156 187.929688c0 98.96875-80.230468 179.199218-179.199218 179.199218-4.355469 0-8.621094-.171875-12.800782-.511718-1.621094-.085938-3.242187-.171876-4.863281-.339844-2.050781-.257813-4.011719-.597656-6.058594-.855469-3.671875-.511719-7.425781-1.023437-11.09375-1.707031-2.390625-.511719-4.695312-1.109375-7.082031-1.707032-3.160156-.765624-6.402344-1.535156-9.472656-2.472656-2.476563-.683594-4.867188-1.621094-7.339844-2.476562-2.902344-.9375-5.804688-1.960938-8.617188-3.070313-2.390624-1.023437-4.78125-2.132812-7.167968-3.242187-2.730469-1.195313-5.378906-2.476563-8.023438-3.839844-2.390625-1.195312-4.609375-2.5625-6.910156-3.839844-2.5625-1.453125-5.035156-2.988281-7.511719-4.609375-2.21875-1.363281-4.351562-2.816406-6.484375-4.351562-2.472656-1.707031-4.777344-3.5-7.167968-5.375-1.960938-1.535157-3.925782-3.15625-5.886719-4.78125l-2.816407-2.300781v-.257813c-53.738281-47.878906-73.5625-123.292969-50.324218-191.410156 23.242187-68.117188 85.023437-115.6875 156.820312-120.738281 4.179688-.34375 8.53125-.511719 12.800782-.511719 55.285156-.003907 107.457031 25.582031 141.308593 69.289062h.257813c1.707031 2.21875 3.328125 4.609375 4.949218 6.914063.851563 1.277344 1.792969 2.472656 2.644532 3.753906 2.902344 4.351562 5.71875 8.875 8.277344 13.566406.425781.855469.855468 1.792969 1.28125 2.644532 2.046874 3.84375 3.925781 7.765624 5.71875 11.777343.765624 1.878907 1.449218 3.839844 2.21875 5.71875 1.277343 3.15625 2.472656 6.3125 3.496093 9.554688.683594 2.050781 1.28125 4.183593 1.964844 6.316406.851563 3.242187 1.707031 6.484375 2.472656 9.8125.511719 2.046875.9375 4.183594 1.367188 6.316406.679687 3.667969 1.191406 7.335938 1.707031 11.007813.167969 1.875.511719 3.667968.679688 5.546875.511718 5.632812.855468 11.261719.855468 16.980469zm0 0" fill="#fec108"/><path d="m341.433594 187.929688c.046875 94.011718-72.621094 172.046874-166.398438 178.6875-1.621094-.085938-3.242187-.171876-4.863281-.339844-2.050781-.257813-4.011719-.597656-6.058594-.855469-3.671875-.511719-7.425781-1.023437-11.09375-1.707031-2.390625-.511719-4.695312-1.109375-7.082031-1.707032-3.160156-.765624-6.402344-1.535156-9.472656-2.472656-2.476563-.683594-4.867188-1.621094-7.339844-2.476562-2.902344-.9375-5.804688-1.960938-8.617188-3.070313-2.390624-1.023437-4.78125-2.132812-7.167968-3.242187-2.730469-1.195313-5.378906-2.476563-8.023438-3.839844-2.390625-1.195312-4.609375-2.5625-6.910156-3.839844-2.5625-1.453125-5.035156-2.988281-7.511719-4.609375-2.21875-1.363281-4.351562-2.816406-6.484375-4.351562-2.472656-1.707031-4.777344-3.5-7.167968-5.375-1.960938-1.535157-3.925782-3.15625-5.886719-4.78125l-2.816407-2.300781v-.257813c-53.738281-47.878906-73.5625-123.292969-50.324218-191.410156 23.242187-68.117188 85.023437-115.6875 156.820312-120.738281 50.664063 3.621093 97.394532 28.628906 128.511719 68.777343h.253906c1.707031 2.21875 3.328125 4.609375 4.949219 6.914063.855469 1.277344 1.792969 2.472656 2.648438 3.753906 2.898437 4.351562 5.714843 8.875 8.277343 13.566406.425781.855469.851563 1.792969 1.277344 2.644532 2.050781 3.84375 3.925781 7.765624 5.71875 11.777343.769531 1.878907 1.449219 3.839844 2.21875 5.71875 1.28125 3.15625 2.472656 6.3125 3.5 9.554688.679687 2.050781 1.277344 4.183593 1.960937 6.316406.851563 3.242187 1.707032 6.484375 2.476563 9.8125.511719 2.046875.9375 4.183594 1.363281 6.316406.683594 3.667969 1.195313 7.335938 1.707032 11.007813.171874 1.875.511718 3.667968.683593 5.546875.511719 5.632812.851563 11.261719.851563 16.980469zm0 0" fill="#fdd834"/><path d="m187.835938.195312c-71.390626-.066406-136.625 40.398438-168.28125 104.382813-31.660157 63.984375-24.246094 140.394531 19.117187 197.101563 6.945313 9.191406 14.746094 17.707031 23.296875 25.429687 5.730469 5.203125 11.804688 10.019531 18.175781 14.421875 64.582031 45.507812 150.800781 45.507812 215.378907 0 6.371093-4.402344 12.445312-9.21875 18.175781-14.421875 57.625-52.050781 77.238281-134.21875 49.335937-206.683594-27.898437-72.464843-97.550781-120.261719-175.199218-120.230469zm0 358.402344c-46.332032.015625-90.671876-18.84375-122.796876-52.226562-2.730468-2.730469-5.289062-5.628906-7.679687-8.53125-2.390625-2.730469-4.609375-5.546875-6.828125-8.535156-52.101562-70.523438-42.28125-169.054688 22.710938-227.914063 64.992187-58.855469 164.011718-58.886719 229.042968-.070313 65.027344 58.816407 74.90625 157.34375 22.851563 227.898438-2.132813 2.988281-4.351563 5.804688-6.742188 8.535156-2.390625 2.902344-5.035156 5.800782-7.679687 8.53125-32.117188 33.457032-76.503906 52.351563-122.878906 52.3125zm0 0" fill="#ff5364"/><path d="m338.019531 297.753906c.011719 1.234375-.25 2.460938-.765625 3.582032-.171875.34375-.425781.683593-.597656 1.027343-40.789062 79.957031-103.511719 166.140625-128.683594 199.59375-4.707031 6.417969-12.179687 10.214844-20.136718 10.238281-7.238282.011719-14.109376-3.171874-18.773438-8.703124-.511719-.511719-.941406-1.023438-1.367188-1.535157-42.003906-55.472656-80.398437-113.59375-114.945312-173.996093-4.949219-8.789063-9.640625-17.578126-14.078125-26.28125-1.332031-2.640626-1.199219-5.785157.347656-8.304688s4.289063-4.058594 7.246094-4.070312h4.265625c2.21875 2.988281 4.4375 5.804687 6.828125 8.535156 2.390625 2.902344 4.949219 5.800781 7.679687 8.53125 58.144532 60.414062 151.601563 69.535156 220.332032 21.503906 9.152344-6.324219 17.644531-13.558594 25.34375-21.589844 2.644531-2.730468 5.289062-5.628906 7.679687-8.53125 2.390625-2.730468 4.609375-5.546875 6.742188-8.535156h4.351562c2.261719 0 4.433594.902344 6.035157 2.5 1.597656 1.601562 2.496093 3.773438 2.496093 6.035156zm0 0" fill="#ad1457"/><path d="m285.371094 327.875c-34.59375 60.421875-73.015625 118.566406-115.03125 174.082031l-1.277344 1.535157c-.511719-.511719-.941406-1.023438-1.367188-1.535157-42.003906-55.472656-80.398437-113.59375-114.945312-173.996093 33.914062 23.609374 75.234375 34.128906 116.3125 29.613281 41.085938 4.519531 82.417969-6.03125 116.308594-29.699219zm0 0" fill="#e91e63"/><path d="m281.699219 273.261719h-187.730469l81.066406-154.792969 12.800782-24.40625zm0 0" fill="#2e7d32"/><path d="m256.101562 273.261719h-162.132812l81.066406-154.792969zm0 0" fill="#4caf50"/><path d="m145.167969 273.261719 35.039062-70.066407c1.445313-2.886718 4.398438-4.710937 7.628907-4.710937 3.226562 0 6.179687 1.824219 7.628906 4.710937l35.035156 70.066407zm0 0" fill="#424242"/><path d="m167.652344 501.957031c4.710937 6.429688 12.207031 10.230469 20.175781 10.230469 7.972656 0 15.46875-3.800781 20.179687-10.230469 25.121094-33.425781 87.832032-119.671875 128.671876-199.621093.09375-.152344.136718-.332032.222656-.484376 59.128906-77.238281 49.46875-186.84375-22.257813-252.546874-71.722656-65.707032-181.753906-65.742188-253.523437-.089844-71.769532 65.65625-81.507813 175.253906-22.433594 252.53125 40.832031 80.128906 103.792969 166.707031 128.964844 200.210937zm26.710937-10.242187c-1.53125 2.078125-3.957031 3.300781-6.535156 3.300781-2.574219 0-5-1.222656-6.53125-3.300781-36.320313-48.238282-70.082031-98.355469-101.144531-150.140625 64.59375 45.453125 150.769531 45.453125 215.363281 0-31.058594 51.785156-64.824219 101.902343-101.152344 150.140625zm-6.527343-474.453125c94.253906 0 170.664062 76.410156 170.664062 170.667969 0 94.257812-76.410156 170.667968-170.664062 170.667968-94.257813 0-170.667969-76.410156-170.667969-170.667968.109375-94.210938 76.453125-170.558594 170.667969-170.667969zm0 0"/><path d="m179.984375 395.972656c.1875.542969.445313 1.058594.765625 1.535156.316406.449219.660156.875 1.027344 1.28125 3.363281 3.300782 8.75 3.300782 12.117187 0 .367188-.40625.707031-.832031 1.023438-1.28125.320312-.476562.582031-.992187.765625-1.535156.246094-.484375.421875-1 .511718-1.535156.097657-.566406.152344-1.136719.171876-1.707031-.03125-2.261719-.917969-4.421875-2.472657-6.058594-.804687-.789063-1.761719-1.402344-2.816406-1.792969-2.078125-.851562-4.410156-.851562-6.488281 0-1.054688.390625-2.011719 1.003906-2.8125 1.792969-.773438.816406-1.382813 1.769531-1.792969 2.816406-.4375 1.023438-.671875 2.125-.683594 3.242188.019531.570312.074219 1.140625.171875 1.707031.09375.535156.265625 1.050781.511719 1.535156zm0 0"/><path d="m187.835938 418.328125c-4.714844 0-8.535157 3.820313-8.535157 8.535156v25.601563c0 4.710937 3.820313 8.53125 8.535157 8.53125 4.710937 0 8.53125-3.820313 8.53125-8.53125v-25.601563c0-4.714843-3.820313-8.535156-8.53125-8.535156zm0 0"/><path d="m93.96875 281.796875h213.332031c4.714844 0 8.535157-3.820313 8.535157-8.535156 0-4.710938-3.820313-8.53125-8.535157-8.53125h-9.660156l8.226563-12.332031c1.691406-2.535157 1.902343-5.78125.550781-8.515626-1.351563-2.734374-4.054688-4.539062-7.097657-4.738281-3.042968-.195312-5.960937 1.246094-7.652343 3.78125l-9.089844 13.65625-86.210937-164.617187v-14.96875c0-4.710938-3.820313-8.53125-8.53125-8.53125-4.714844 0-8.535157 3.820312-8.535157 8.53125v14.96875l-86.1875 164.589844-9.085937-13.652344c-1.691406-2.539063-4.609375-3.980469-7.652344-3.78125-3.042969.195312-5.75 2.003906-7.101562 4.734375-1.347657 2.734375-1.136719 5.980469.554687 8.519531l8.199219 12.355469h-9.660156c-4.710938 0-8.53125 3.820312-8.53125 8.53125 0 4.714843 3.820312 8.535156 8.53125 8.535156zm65.003906-17.066406 28.863282-57.71875 28.859374 57.71875zm28.863282-152.277344 79.757812 152.277344h-31.820312l-40.257813-80.617188c-1.605469-2.6875-4.507813-4.335937-7.640625-4.335937-3.128906 0-6.03125 1.648437-7.636719 4.335937l-40.34375 80.617188h-31.820312zm0 0"/></svg>