<svg height="512" viewBox="0 0 512 512" width="512" xmlns="http://www.w3.org/2000/svg"><g id="flat"><circle cx="328" cy="176" fill="#8f6934" r="16"/><path d="m440 224a8 8 0 0 1 -8-8v-152a8 8 0 0 1 16 0v152a8 8 0 0 1 -8 8z" fill="#a8a8a8"/><path d="m320 168a8 8 0 0 1 0-16 45.386 45.386 0 0 0 45.335-47.555l-.385-8.064a8 8 0 0 1 7.991-8.381h35.059a24.028 24.028 0 0 0 24-24 8 8 0 0 1 16 0 40.045 40.045 0 0 1 -40 40h-26.669a61.386 61.386 0 0 1 -61.331 64z" fill="#cbcbcb"/><path d="m96 288a8 8 0 0 1 -8-8v-24a8 8 0 0 0 -16 0v24a8 8 0 0 1 -16 0v-24a24 24 0 0 1 48 0v24a8 8 0 0 1 -8 8z" fill="#cbcbcb"/><path d="m296 256a8 8 0 0 1 -8-8 197.456 197.456 0 0 1 144.6-190.249l5.255-1.459a8 8 0 1 1 4.282 15.416l-5.254 1.459a181.454 181.454 0 0 0 -132.883 174.833 8 8 0 0 1 -8 8z" fill="#8f6934"/><path d="m272 208 16-16h24v24l-24 8z" fill="#e6ccb4"/><path d="m88 376c-2.709 0-5.379-8.168-8-8.5a64.011 64.011 0 0 1 -56-63.5h320a64.011 64.011 0 0 1 -56 63.505c-2.05.256-123.318 16.5-176 16.5-16-.005-24-8.005-24-8.005z" fill="#8f6934"/><path d="m339.34 328a63.411 63.411 0 0 1 -9.37 16h-291.94a63.411 63.411 0 0 1 -9.37-16z" fill="#8f6934"/><path d="m190 88h20a14 14 0 0 1 14 14v18a0 0 0 0 1 0 0h-48a0 0 0 0 1 0 0v-18a14 14 0 0 1 14-14z" fill="#0a9acd"/><path d="m168 160-6.426 6.426a60 60 0 0 0 -17.574 42.427v55.147h64v-47.431a40 40 0 0 0 -11.716-28.285l-4.284-4.284 8-16z" fill="#fd9226"/><path d="m175.35 211.759 28.8 46.072a8 8 0 0 0 10.361 2.916l73.489-36.747-16-24-56 24-16.294-27.157a14.281 14.281 0 0 0 -20.168-4.535 14.28 14.28 0 0 0 -4.188 19.451z" fill="#69a88c"/><path d="m104 304h-48l-8-32h64z" fill="#eaeae8"/><path d="m339.34 328a63.411 63.411 0 0 1 -9.37 16h-291.94a63.411 63.411 0 0 1 -9.37-16z" fill="#715329"/><path d="m328 200a24 24 0 1 1 24-24 24.028 24.028 0 0 1 -24 24zm0-32a8 8 0 1 0 8 8 8.009 8.009 0 0 0 -8-8z" fill="#cbcbcb"/><path d="m384 296a8 8 0 0 1 -8-8v-16a8 8 0 0 1 16 0v16a8 8 0 0 1 -8 8z" fill="#faebb8"/><path d="m384 256a8 8 0 0 1 -8-8v-8a8 8 0 0 1 16 0v8a8 8 0 0 1 -8 8z" fill="#faebb8"/><path d="m472 160a8 8 0 0 1 -8-8v-8a8 8 0 0 1 16 0v8a8 8 0 0 1 -8 8z" fill="#faebb8"/><path d="m488 336a8 8 0 0 1 -8-8v-16a8 8 0 0 1 16 0v16a8 8 0 0 1 -8 8z" fill="#faebb8"/><path d="m384 352a8 8 0 0 1 -8-8v-16a8 8 0 0 1 16 0v16a8 8 0 0 1 -8 8z" fill="#faebb8"/><path d="m488 296a8 8 0 0 1 -8-8v-8a8 8 0 0 1 16 0v8a8 8 0 0 1 -8 8z" fill="#faebb8"/><path d="m224 160h-16l-8 8-32-8 8-16v-24h48l8 16-8 8z" fill="#e6ccb4"/><path d="m176 112h80a8 8 0 0 1 0 16h-80z" fill="#0a6fa2"/><path d="m461.657 322.343-16-16a8 8 0 0 0 -1.544-1.2l4.477-7.457a108.194 108.194 0 0 0 15.41-55.636v-.66a73.642 73.642 0 0 0 -7.78-32.95l-16.22-32.44-16.22 32.44a73.642 73.642 0 0 0 -7.78 32.95v.66a108.194 108.194 0 0 0 15.41 55.64l4.477 7.457a8 8 0 0 0 -1.544 1.2l-16 16a8 8 0 0 0 11.314 11.314l10.343-10.348 10.343 10.344a8 8 0 0 0 11.314-11.314z" fill="#0a6fa2"/><path d="m464 241.39a46.129 46.129 0 0 1 -48 0 73.642 73.642 0 0 1 7.78-32.95l16.22-32.44 16.22 32.44a73.642 73.642 0 0 1 7.78 32.95z" fill="#0a9acd"/><circle cx="440" cy="224" fill="#0a6fa2" r="8"/><path d="m488 454c-58 0-58 20-116 20s-58-20-116-20-58 20-116 20-58-20-116-20l-7.94.12-.06-84.226 8-1.894c58 0 58 20 116 20s58-20 116-20 58 20 116 20 58-20 116-20h8l-.189 86.04z" fill="#0bafea"/><g fill="#0a9acd"><path d="m372.32 394c-30.342 0-45.73-5.306-60.611-10.438-14.261-4.916-27.732-9.562-55.392-9.562s-41.129 4.646-55.39 9.562c-14.881 5.132-30.267 10.438-60.607 10.438s-45.727-5.306-60.608-10.437c-14.26-4.917-27.731-9.563-55.39-9.563a8 8 0 0 1 0-16c30.34 0 45.726 5.306 60.607 10.437 14.261 4.917 27.732 9.563 55.391 9.563s41.13-4.646 55.39-9.563c14.881-5.131 30.267-10.437 60.607-10.437s45.728 5.306 60.608 10.437c14.263 4.917 27.735 9.563 55.395 9.563s41.131-4.646 55.393-9.563c14.88-5.131 30.268-10.437 60.609-10.437a8 8 0 0 1 0 16c-27.66 0-41.131 4.646-55.394 9.563-14.88 5.131-30.267 10.437-60.608 10.437z"/><path d="m400.312 434.043a8 8 0 0 1 -1.228-15.9c11.525-1.8 19.833-4.669 28.628-7.7 14.881-5.137 30.269-10.443 60.61-10.443a8 8 0 0 1 0 16c-27.66 0-41.131 4.646-55.394 9.562-9.067 3.127-18.444 6.361-31.369 8.383a7.894 7.894 0 0 1 -1.247.098z"/><path d="m368.325 435.968h-.136c-27.64-.459-42.3-5.515-56.479-10.4-14.262-4.922-27.733-9.568-55.393-9.568a180.716 180.716 0 0 0 -22.982 1.325 8 8 0 0 1 -2.027-15.871 196.391 196.391 0 0 1 25.009-1.454c30.341 0 45.728 5.306 60.609 10.438 13.594 4.687 26.434 9.114 51.529 9.531a8 8 0 0 1 -.13 16z"/><path d="m160.312 435.068a8 8 0 0 1 -.8-15.96c15.644-1.585 25.627-5.027 36.2-8.671 1.972-.68 3.944-1.361 5.95-2.028a8 8 0 1 1 5.051 15.182c-1.951.649-3.868 1.31-5.785 1.971-10.968 3.783-22.309 7.693-39.8 9.464a7.725 7.725 0 0 1 -.816.042z"/><path d="m120.331 435.068a7.739 7.739 0 0 1 -.815-.042c-17.493-1.77-28.835-5.681-39.8-9.464-14.264-4.916-27.735-9.562-55.394-9.562a8 8 0 0 1 0-16c30.341 0 45.727 5.306 60.607 10.438 10.57 3.644 20.554 7.086 36.2 8.67a8 8 0 0 1 -.8 15.96z"/><path d="m456.313 462.646a8 8 0 0 1 -1.465-15.865 181.09 181.09 0 0 1 33.474-2.781 8 8 0 0 1 0 16 165.31 165.31 0 0 0 -30.527 2.508 8.072 8.072 0 0 1 -1.482.138z"/><path d="m372.32 480c-30.342 0-45.729-5.306-60.61-10.437-9.708-3.347-18.877-6.509-32.4-8.237a8 8 0 1 1 2.027-15.871c15.158 1.937 25.545 5.519 35.591 8.982 14.26 4.917 27.732 9.563 55.392 9.563s41.129-4.645 55.39-9.562l2.014-.694a8 8 0 1 1 5.195 15.133l-1.993.686c-14.881 5.131-30.267 10.437-60.606 10.437z"/><path d="m140.32 480c-27.107 0-42.425-4.341-54.655-8.409a8 8 0 0 1 5.051-15.182c11.546 3.841 24.884 7.591 49.604 7.591 27.658 0 41.129-4.645 55.39-9.562 11.839-4.084 24.08-8.3 44-9.837a8 8 0 1 1 1.229 15.953c-17.87 1.375-28.625 5.083-40.01 9.009-14.883 5.131-30.269 10.437-60.609 10.437z"/><path d="m64.328 464.4a8 8 0 0 1 -1.963-.245c-11.247-2.834-23.335-4.155-38.043-4.155a8 8 0 0 1 0-16c16.063 0 29.4 1.477 41.957 4.646a8 8 0 0 1 -1.951 15.754z"/></g><path d="m144 264v20a20 20 0 0 0 20 20h52l32-24 24 24h40l-36.027-42.032a40 40 0 0 0 -30.373-13.968h-1.492a40 40 0 0 0 -22.188 6.718l-13.92 9.282z" fill="#5f967c"/></g></svg>