<svg id="Capa_1" enable-background="new 0 0 512.029 512.029" height="512" viewBox="0 0 512.029 512.029" width="512" xmlns="http://www.w3.org/2000/svg"><g><path d="m497.016 479.015h-369c-11.23 0-18.51-11.92-13.3-21.94 95.5-183.04 87.8-168.28 103.58-198.53 0 0 40.89-27.59 98.08-28.39 29.48-.41 63.29 6.3 98.07 27.58.1 0-1.211-2.574 96.09 199.78 4.78 9.97-2.5 21.5-13.52 21.5z" fill="#bee75e"/><path d="m497.016 479.015h-180.64v-248.86c29.48-.41 63.29 6.3 98.07 27.58.1 0-1.211-2.574 96.09 199.78 4.78 9.97-2.5 21.5-13.52 21.5z" fill="#57c126"/><path d="m414.446 257.735-12.86 14.69c-17.64 20.17-47.76 24.17-70.05 9.3-7.43-4.964-16.952-5.335-24.79-.86l-7.89 4.51c-22.08 12.64-50.22 7.84-66.91-11.23l-13.65-15.6 74.58-142.93c11.425-21.881 42.939-21.375 53.63.87z" fill="#f9f9f9"/><path d="m414.446 257.735-12.86 14.69c-17.64 20.17-47.76 24.17-70.05 9.3-4.58-3.06-9.92-4.36-15.16-3.89v-178.18c11.79-1.19 24.18 4.45 30.13 16.83z" fill="#e2dff4"/><path d="m263.396 479.015h-248.03c-11.64 0-18.53-11.61-13.92-21.39 29.49-62.63 38.36-81.46 48.48-102.96 0 0 30.27-38.54 76.97-38.51 22.39.01 48.55 8.89 76.96 35.1.099.1 53.067 113.945 59.54 127.76z" fill="#57c126"/><path d="m263.396 479.015h-136.5v-162.86c22.39.01 48.55 8.89 76.96 35.1.099.1 53.067 113.945 59.54 127.76z" fill="#009859"/><path d="m203.866 351.265c-4.32 8.45-1.87 3.74-14.81 28.36-11.8 22.46-43.16 24.35-57.62 3.57-1.147-1.652-3.156-1.918-4.54-1.35-1.1.44-1.66 1.38-2.23 2.23-13.58 20.39-43.73 20.11-56.78-.76-15.8-25.29-11.73-18.81-17.96-28.65l50.89-108.09c10.834-22.991 43.577-22.954 54.32.1 5.52 11.87 26.57 57.03 48.73 104.59z" fill="#e2dff4"/><path d="m203.866 351.265c-4.32 8.45-1.87 3.74-14.81 28.36-11.8 22.46-43.16 24.35-57.62 3.57-1.147-1.652-3.156-1.918-4.54-1.35v-152.47c11.25-.38 22.69 5.39 28.24 17.3 5.52 11.87 26.57 57.03 48.73 104.59z" fill="#bebcdd"/><path d="m237.956 120.835v7.02c0 26-21.15 47.16-47.16 47.16h-142.46c-24 0-43.01-15.24-47.31-37.93-4.58-24.18 9.54-46.55 32.24-53.88 5.94-28.62 31.34-50.19 61.69-50.19 21.106 0 41.63 10.662 53.54 29.8 41.81-19.37 89.46 11.64 89.46 58.02z" fill="#f9f9f9"/><path d="m237.956 120.835v7.02c0 26-21.15 47.16-47.16 47.16h-63.9v-133.3c8.56 5.03 16.03 12.15 21.6 21.1 41.81-19.37 89.46 11.64 89.46 58.02z" fill="#e2dff4"/></g></svg>