<svg height="512" viewBox="0 0 512 512" width="512" xmlns="http://www.w3.org/2000/svg"><g id="flat"><path d="m152 184 32 24 32-8 24 8-8 24-16-8-32 8-32-16z" fill="#e6ccb4"/><path d="m408 280 48-32-16-16-80 48z" fill="#b26643"/><path d="m208 248h8a32 32 0 0 1 32 32h-72z" fill="#0bafea"/><path d="m88 280-14.3-3.575a40 40 0 0 0 -49.7 38.806v1.046a56 56 0 0 0 42.418 54.328l.085.021a180.014 180.014 0 0 0 43.656 5.374h291.682a180.014 180.014 0 0 0 43.656-5.374l.085-.021a56 56 0 0 0 42.418-54.328v-1.046a40 40 0 0 0 -49.7-38.806l-14.3 3.575z" fill="#fbb540"/><path d="m144 176h-40v-48h40l8 24-8 8z" fill="#e6ccb4"/><path d="m88 280h56v-40l8-16v-32-8l-8-8h-40l-16 24z" fill="#fd9226"/><path d="m344 176h-40v-48h40l8 24-8 8z" fill="#e6a98d"/><path d="m352 128h-64v-7.015a32 32 0 0 1 24.239-31.045 32 32 0 0 1 15.522 0 32 32 0 0 1 24.239 31.045z" fill="#ee5e5b"/><path d="m144 128h-64v-7.015a32 32 0 0 1 24.239-31.045 32 32 0 0 1 15.522 0 32 32 0 0 1 24.239 31.045z" fill="#ee5e5b"/><path d="m280 232h8v48h72v-96l-16-8h-40l-24 16z" fill="#fd9226"/><path d="m312 232v-32l-32-8v40z" fill="#0296e5"/><g fill="#e6a98d"><path d="m360 184 48 32h32l24 8-8 24-16-8h-40l-40-24z"/><path d="m394.67 207.11-15.36 20.48-19.31-11.59v-32z"/><path d="m280 232 32 48h64l8-16-16-16-16 8h-24l-16-24z"/></g><path d="m80 128v24l-16 24h24a16 16 0 0 0 16-16v-32z" fill="#b26643"/><path d="m144 184a7.969 7.969 0 0 1 -5-1.753l-40-32a8 8 0 0 1 10-12.494l40 32a8 8 0 0 1 -5 14.247z" fill="#cbcbcb"/><path d="m240 336h-152a7.993 7.993 0 0 1 -3.151-.647l-64-27.429a8 8 0 1 1 6.3-14.706l62.493 26.782h150.358a8 8 0 0 1 0 16z" fill="#ebebeb"/><path d="m368 336h-96a8 8 0 0 1 0-16h96a8 8 0 0 1 0 16z" fill="#ebebeb"/><path d="m424 336h-24a8 8 0 0 1 0-16h22.358l65.242-27.962a8 8 0 0 1 6.3 14.706l-66.754 28.609a7.993 7.993 0 0 1 -3.146.647z" fill="#ebebeb"/><circle cx="256" cy="328" fill="#d18d28" r="16"/><circle cx="384" cy="328" fill="#d18d28" r="16"/><path d="m394.67 207.11-15.36 20.48-19.31-11.59v-32z" fill="#0296e5"/><path d="m232 208-168 136-9.633 2.408a42 42 0 0 0 -29.658 27.465l-.709 2.127 23 20 25-20 176-144z" fill="#b26643"/><path d="m88 208v41.82a10 10 0 0 0 5.528 8.944l42.472 21.236h32l8-16-16-16-16 8-24-16v-32a16 16 0 0 0 -16-16 16 16 0 0 0 -16 16z" fill="#e6ccb4"/><path d="m488 432c-25.78 0-25.78-20-51.561-20s-25.78 20-51.561 20-25.777-20-51.554-20-25.778 20-51.555 20-25.777-20-51.554-20-25.776 20-51.552 20-25.778-20-51.555-20-25.777 20-51.553 20-25.778-20-51.555-20v-48c25.777 0 25.777 20 51.555 20s25.776-20 51.553-20 25.777 20 51.555 20 25.776-20 51.552-20 25.777 20 51.554 20 25.777-20 51.555-20 25.777 20 51.554 20 25.781-20 51.561-20 25.781 20 51.561 20z" fill="#8feaff"/><path d="m488 432c-25.78 0-25.78-20-51.561-20s-25.78 20-51.561 20-25.777-20-51.554-20-25.778 20-51.555 20-25.777-20-51.554-20-25.776 20-51.552 20-25.778-20-51.555-20-25.777 20-51.553 20-25.778-20-51.555-20v48c25.777 0 25.777 20 51.555 20s25.776-20 51.553-20 25.777 20 51.555 20 25.776-20 51.552-20 25.777 20 51.554 20 25.777-20 51.555-20 25.777 20 51.554 20 25.781-20 51.561-20 25.781 20 51.561 20z" fill="#0bafea"/><path d="m288 128v24l16 13.411v-37.411z" fill="#d18d28"/><path d="m344 184a7.969 7.969 0 0 1 -5-1.753l-40-32a8 8 0 1 1 10-12.494l40 32a8 8 0 0 1 -5 14.247z" fill="#cbcbcb"/></g></svg>